<?xml version="1.0" encoding="UTF-8"?>
<svg width="512" height="512" viewBox="0 0 512 512" fill="none" xmlns="http://www.w3.org/2000/svg">
  <circle cx="256" cy="256" r="240" fill="#A855F7" fill-opacity="0.1"/>
  <g stroke="#A855F7" stroke-width="2" stroke-linecap="round">
    <!-- Network nodes and connections -->
    <circle cx="256" cy="256" r="8" fill="#A855F7"/>
    <circle cx="180" cy="200" r="6" fill="#A855F7"/>
    <circle cx="332" cy="200" r="6" fill="#A855F7"/>
    <circle cx="180" cy="312" r="6" fill="#A855F7"/>
    <circle cx="332" cy="312" r="6" fill="#A855F7"/>
    <circle cx="256" cy="144" r="6" fill="#A855F7"/>
    <circle cx="256" cy="368" r="6" fill="#A855F7"/>
    <circle cx="144" cy="256" r="6" fill="#A855F7"/>
    <circle cx="368" cy="256" r="6" fill="#A855F7"/>
    
    <!-- Connections -->
    <path d="M256 256 L180 200"/>
    <path d="M256 256 L332 200"/>
    <path d="M256 256 L180 312"/>
    <path d="M256 256 L332 312"/>
    <path d="M256 256 L256 144"/>
    <path d="M256 256 L256 368"/>
    <path d="M256 256 L144 256"/>
    <path d="M256 256 L368 256"/>
    
    <!-- Additional nodes -->
    <circle cx="220" cy="180" r="4" fill="#A855F7"/>
    <circle cx="292" cy="180" r="4" fill="#A855F7"/>
    <circle cx="220" cy="332" r="4" fill="#A855F7"/>
    <circle cx="292" cy="332" r="4" fill="#A855F7"/>
  </g>
</svg>